<svg xmlns="http://www.w3.org/2000/svg" width="56.5" height="56.5"><path d="M53.66 22.385l-5.412-1.084a21.446 21.446 0 00-.947-2.276l3.064-4.6a3.532 3.532 0 00-.441-4.456l-3.4-3.4a3.531 3.531 0 00-4.456-.442l-4.6 3.064a21.317 21.317 0 00-2.278-.946l-1.083-5.413a3.53 3.53 0 00-3.462-2.84h-4.8a3.53 3.53 0 00-3.462 2.84l-1.085 5.413a21.319 21.319 0 00-2.276.946l-4.6-3.064a3.531 3.531 0 00-4.456.442l-3.4 3.4a3.53 3.53 0 00-.441 4.456l3.064 4.6a21.237 21.237 0 00-.947 2.278L2.83 22.385a3.531 3.531 0 00-2.84 3.462v4.805a3.529 3.529 0 002.84 3.461l5.412 1.085a21.55 21.55 0 00.947 2.277l-3.064 4.6a3.529 3.529 0 00.441 4.455l3.4 3.4a3.532 3.532 0 004.456.441l4.6-3.064a21.317 21.317 0 002.278.946l1.083 5.413a3.529 3.529 0 003.462 2.839h4.8a3.529 3.529 0 003.462-2.839l1.085-5.413a21.405 21.405 0 002.276-.946l4.6 3.064a3.532 3.532 0 004.456-.441l3.4-3.4a3.53 3.53 0 00.441-4.455l-3.064-4.6a21.339 21.339 0 00.947-2.279l5.412-1.083a3.529 3.529 0 002.84-3.461v-4.805a3.531 3.531 0 00-2.84-3.462zm-6.105 9.349a3.529 3.529 0 00-2.642 2.3 17.592 17.592 0 01-.79 1.9 3.53 3.53 0 00.24 3.5l3.064 4.6-3.4 3.4-4.6-3.065a3.532 3.532 0 00-3.5-.241 17.773 17.773 0 01-1.9.792 3.528 3.528 0 00-2.3 2.641l-1.084 5.414h-4.8l-1.083-5.414a3.528 3.528 0 00-2.3-2.641 17.883 17.883 0 01-1.9-.79 3.53 3.53 0 00-3.5.239l-4.6 3.065-3.4-3.4 3.064-4.6a3.536 3.536 0 00.241-3.5 17.751 17.751 0 01-.791-1.9 3.529 3.529 0 00-2.642-2.3L3.52 30.65v-4.805l5.414-1.083a3.528 3.528 0 002.642-2.3 17.31 17.31 0 01.79-1.9 3.529 3.529 0 00-.24-3.5l-3.064-4.6 3.4-3.4 4.6 3.065a3.534 3.534 0 003.5.241 17.687 17.687 0 011.9-.792 3.528 3.528 0 002.3-2.641l1.084-5.413h4.8l1.083 5.414a3.525 3.525 0 002.3 2.641 17.813 17.813 0 011.9.79 3.528 3.528 0 003.5-.239l4.6-3.065 3.4 3.4-3.064 4.6a3.536 3.536 0 00-.241 3.5 17.872 17.872 0 01.791 1.9 3.529 3.529 0 002.642 2.3l5.412 1.084v4.805zm-19.3-15.844a12.36 12.36 0 1012.359 12.36A12.361 12.361 0 0028.25 15.89zm0 23.174A10.815 10.815 0 1139.069 28.25 10.816 10.816 0 0128.25 39.064zm0-17.877a7.063 7.063 0 107.062 7.063 7.061 7.061 0 00-7.067-7.063zm0 12.359a5.3 5.3 0 115.3-5.3 5.3 5.3 0 01-5.305 5.3z" fill="#fff" fill-rule="evenodd"/></svg>