<svg xmlns="http://www.w3.org/2000/svg" width="58" height="58"><path d="M53.28 4.676A15.489 15.489 0 0042.5 0a11.846 11.846 0 00-8.46 3.4l-8.82 8.888c-.03.025-.06.043-.09.07l-.03.047L6.38 31.27a7.241 7.241 0 00-1.84 3.09L.28 49.78A13.405 13.405 0 000 51.65a6.345 6.345 0 006.35 6.343 12.977 12.977 0 002.1-.339l15.37-4.04a7.4 7.4 0 003.09-1.84l27.66-27.882c5.03-5.031 4.47-13.47-1.29-19.216zM29.03 43.13a14.615 14.615 0 00-1.31-4.764l17.14-17.134a8.828 8.828 0 01-1.79 9.07c-.01.015-.03.023-.04.037l.02.024L29.04 44.48a12.175 12.175 0 00-.01-1.35zm-2.22-6.417a14.814 14.814 0 00-6.1-5.837L37.99 13.6a12.679 12.679 0 013.8 2.606 12.546 12.546 0 012.32 3.209zm-7.8-6.694a14.469 14.469 0 00-5.2-1.085l13.96-14.068a8.706 8.706 0 018.32-1.924zM7.55 54.145a8.582 8.582 0 01-1.23.229 2.727 2.727 0 01-2.7-2.718c.03-.3.15-.827.19-1.02l1.91-6.914a8.6 8.6 0 018.58 8.652zm8.53-2.241a10.086 10.086 0 00-3.03-6.955 10.309 10.309 0 00-6.82-3.08l1.8-6.538a3.706 3.706 0 01.71-1.241c3.64-2.6 9.23-1.834 13.11 2.054 4.11 4.108 4.75 10.123 1.58 13.717a3.692 3.692 0 01-.65.285zM52 21.337l-3.05 3.076c0-.409.05-.8.01-1.221a16.016 16.016 0 00-15.35-14.21l3-3.026a8.253 8.253 0 015.89-2.332 12.517 12.517 0 0111.85 11.171A8.289 8.289 0 0152 21.337z" fill="#fff" fill-rule="evenodd"/></svg>