<svg xmlns="http://www.w3.org/2000/svg" width="61.031" height="53.406"><path d="M30.513 9.535c-11.371 0-20.978 6.114-20.978 13.349a.954.954 0 101.907 0c0-6.1 8.912-11.442 19.071-11.442a.954.954 0 100-1.907zm0-9.536C13.66 0 0 10.246 0 22.884c0 7.871 5.3 14.81 13.364 18.93 0 .052-.014.085-.014.141 0 3.42-2.554 7.1-3.677 9.033a1.724 1.724 0 001.587 2.409 4.467 4.467 0 01.486-.023c5.959-.976 11.574-6.451 12.878-8.04a40.585 40.585 0 005.885.435c16.851 0 30.514-10.246 30.514-22.885S47.364 0 30.513 0zm0 41.956a36.94 36.94 0 01-5.332-.394 3.687 3.687 0 00-.553-.042 3.814 3.814 0 00-2.948 1.395 25.647 25.647 0 01-5.883 4.842 14.918 14.918 0 001.365-5.59c.011-.123.017-.246.017-.352a3.818 3.818 0 00-2.079-3.4C8.032 34.805 3.814 28.999 3.814 22.882c0-10.515 11.977-19.07 26.7-19.07s26.7 8.555 26.7 19.07-11.979 19.073-26.701 19.073z" fill="#fff" fill-rule="evenodd"/></svg>