<svg xmlns="http://www.w3.org/2000/svg" width="58" height="58"><path d="M57.17.29a1.793 1.793 0 00-.98-.291 1.824 1.824 0 00-1.01.3L.81 36.549a1.809 1.809 0 00.33 3.189l14.18 5.675 6.67 11.668a1.811 1.811 0 001.55.914h.02a1.823 1.823 0 001.56-.882l3.76-6.276 17.57 7.027a1.814 1.814 0 00.67.131 1.783 1.783 0 00.89-.234 1.807 1.807 0 00.9-1.282l9.06-54.375a1.8 1.8 0 00-.8-1.814zM5.68 37.658l42.01-28L17.15 42.35a3.975 3.975 0 00-.48-.293zm12.79 5.962a.017.017 0 01-.01-.018L52.79 6.853 23.52 52.459zm27.24 10.046l-15.48-6.191a3.651 3.651 0 00-1.14-.216l23.84-36.954z" fill="#fff" fill-rule="evenodd"/></svg>