<svg xmlns="http://www.w3.org/2000/svg" width="70.375" height="61.53"><path d="M64.2 6.09a21.191 21.191 0 00-29.011-.63 21.19 21.19 0 00-29.01.63 20.679 20.679 0 000 29.47C8.531 37.89 30.485 59.6 30.485 59.6a6.7 6.7 0 009.409 0S63.934 35.82 64.2 35.56a20.679 20.679 0 000-29.47zm-3.137 26.37L36.756 56.5a2.243 2.243 0 01-3.133 0L9.317 32.46a16.343 16.343 0 010-23.27 16.706 16.706 0 0122.891-.48l2.981 2.68 2.983-2.68a16.706 16.706 0 0122.891.48 16.345 16.345 0 010 23.27zM20.349 11.01h-.009a9.336 9.336 0 00-9.337 9.33 1.1 1.1 0 102.2 0 7.145 7.145 0 017.145-7.14 1.1 1.1 0 10.001-2.19z" fill="#9f449b" fill-rule="evenodd"/></svg>