<svg xmlns="http://www.w3.org/2000/svg" width="49.72" height="53.031"><path d="M43.08 0H6.63A6.63 6.63 0 000 6.628v39.767a6.63 6.63 0 006.63 6.628h36.45a6.63 6.63 0 006.63-6.628V6.627A6.63 6.63 0 0043.08 0zm3.31 46.395a3.314 3.314 0 01-3.31 3.314H6.63a3.323 3.323 0 01-3.32-3.314V6.627a3.321 3.321 0 013.32-3.314h36.45a3.313 3.313 0 013.31 3.314v39.767zM41.42 6.628H8.28a1.654 1.654 0 00-1.65 1.657V38.11a1.653 1.653 0 001.65 1.657h33.14a1.655 1.655 0 001.66-1.657V8.284a1.656 1.656 0 00-1.66-1.657zm0 1.657v22.981l-5.38-5.851a1.662 1.662 0 00-2.49 0l-4.31 4.89-13.08-14.831a1.66 1.66 0 00-2.49 0l-5.39 6.21v-13.4h33.14zM8.28 24.191l6.63-7.622 13.37 15.15.96 1.091 4.58 5.3H8.28V24.19zM36.02 38.11l-5.68-6.553 4.46-5.046 6.62 7.257v4.342h-5.4zm-4.54-16.57a4.971 4.971 0 10-4.97-4.971 4.967 4.967 0 004.97 4.97zm0-8.285a3.314 3.314 0 11-3.31 3.314 3.321 3.321 0 013.31-3.315z" fill="#fff" fill-rule="evenodd"/></svg>