<svg xmlns="http://www.w3.org/2000/svg" width="67.592" height="59.16"><path d="M67.602 12.68a6.315 6.315 0 00-4.91-6.18L35.192.16a5.993 5.993 0 00-1.4-.16 6.439 6.439 0 00-1.425.16L4.902 6.5a6.343 6.343 0 000 12.36l5.652 1.3v17.87c0 5.61 6.418 10.57 23.24 10.57S57.04 43.64 57.04 38.03V20.16l5.64-1.3a6.313 6.313 0 004.922-6.18zm-14.79 25.35c0 2.34-6.34 6.34-19.016 6.34s-19.015-4-19.015-6.34V21.14l17.618 4.06a6.615 6.615 0 001.4.16 6.465 6.465 0 001.426-.17l17.59-4.05v16.89zm-18.54-16.95a2.286 2.286 0 01-.951 0L5.855 14.74a2.114 2.114 0 010-4.12l27.466-6.34a2.286 2.286 0 01.951 0l27.47 6.34a2.117 2.117 0 010 4.12zm26.99 2.16v19.02a2.115 2.115 0 004.23 0V23.24a2.115 2.115 0 00-4.23 0zm2.11 23.24c-2.33 0-4.22 6.12-4.22 8.45a4.225 4.225 0 108.45 0c0-2.33-1.89-8.45-4.23-8.45z" fill="#fff" fill-rule="evenodd"/></svg>