<svg xmlns="http://www.w3.org/2000/svg" width="56" height="56"><path d="M54.441 49.587a51.109 51.109 0 00-16.226-6.471 39.74 39.74 0 006.668-14.3c1.318-5.474.807-16.184-4.45-22.857a15.945 15.945 0 00-24.866 0c-5.257 6.673-5.768 17.383-4.45 22.857a39.723 39.723 0 006.668 14.3 51.109 51.109 0 00-16.226 6.471A3.5 3.5 0 003.5 56h49a3.5 3.5 0 001.941-6.413zm-18.974-8.64l-.573.726c-4.173 4.794-9.615 4.794-13.788 0l-.573-.726a29.915 29.915 0 01-6.251-22.137C15.237 11.321 19.529 3.499 28 3.499s12.763 7.822 13.718 15.311a29.921 29.921 0 01-6.251 22.137zM3.5 52.5a47.647 47.647 0 0115.025-5.962l4.348-.942a8.773 8.773 0 0010.254 0l4.348.942A47.71 47.71 0 0152.5 52.5h-49z" fill="#fff" fill-rule="evenodd"/></svg>